<svg width="36" height="31" viewBox="0 0 36 31" fill="none" xmlns="http://www.w3.org/2000/svg">
<path d="M11.9946 27.9955C11.9946 25.7815 14.0274 23.7133 16.535 23.7133C19.0426 23.7133 21.0754 25.5081 21.0754 27.7222C21.0754 29.4533 18.2503 30 16.535 30C14.618 30 11.9946 29.7267 11.9946 27.9955Z" fill="#DCD9D9"/>
<path d="M32.4547 16.3788C32.4547 21.6515 25.0286 28.2424 16.5352 28.2424C8.04169 28.2424 1.15637 21.6515 1.15637 16.3788C6.09108 11.4441 10.7254 8.0303 16.5352 8.0303C21.4699 8.0303 25.5258 11.9849 32.4547 16.3788Z" fill="#F7F7F7"/>
<path d="M6.72363 24.5528C6.60479 24.4934 6.4855 24.4279 6.36632 24.3572C6.46712 24.4053 6.56956 24.4529 6.6736 24.5C7.81788 25.0177 9.15586 25.4698 10.6341 25.8125C9.00684 25.4552 7.61887 25.0004 6.72363 24.5528ZM16.7495 26.5C17.7301 26.5 18.6953 26.4483 19.6338 26.3525C18.7134 26.4485 17.7522 26.5 16.7495 26.5Z" stroke="#FD6868" stroke-linecap="round"/>
<ellipse cx="16.6365" cy="15.9394" rx="15.8182" ry="7.90909" fill="#D5D5D5"/>
<ellipse cx="16.6365" cy="15.9394" rx="14.9394" ry="7.0303" fill="#D6D6D6"/>
<path d="M31.1366 17.697C29.4007 20.9207 23.2267 23.8485 16.8102 23.8485C10.3937 23.8485 5.60835 21.9953 2.1366 17.697C3.17812 15.1896 6.04775 13.1027 8.47796 13.1027C11.7593 12.7445 12.7646 13.7108 15.2535 13.7959C18.8708 14.1352 20.1361 11.5427 24.7952 12.7445C27.5726 13.4609 31.1366 16.0921 31.1366 17.697Z" fill="#F3D2AB"/>
<path d="M17.9165 23.195C17.9165 20.0517 16.7392 16.5708 12.7132 15.2191C8.68709 13.8674 4.52315 14.8127 2.60982 17.6068" stroke="#F3BD6C" stroke-linecap="round"/>
<path d="M15.2377 23.195C15.6204 20.7502 14.2741 17.6599 10.8571 16.5127C7.60578 15.4211 4.52305 15.8605 2.60972 17.6068" stroke="#F3BD6C" stroke-linecap="round"/>
<path d="M30.6837 17.4603C28.6491 15.6033 25.3709 15.1359 21.9133 16.2968C21.0613 16.5828 20.3303 16.9825 19.7157 17.4603" stroke="#F3BD6C" stroke-linecap="round"/>
<path d="M12.5591 22.4965C12.8521 20.6244 11.3489 18.136 8.7324 17.2575C6.24268 16.4217 4.52308 16.559 2.99242 17.9561" stroke="#F3BD6C" stroke-linecap="round"/>
<path d="M30.2769 17.8317C28.6492 16.3461 26.8205 16.2 24.1729 17.0889C22.6814 17.5897 21.53 18.5824 20.8308 19.7024" stroke="#F3BD6C" stroke-linecap="round"/>
<path d="M9.49766 21.798C9.67718 20.651 8.80466 18.4943 7.20167 17.9561C5.67635 17.444 4.24169 17.5487 3.30394 18.4045" stroke="#F3BD6C" stroke-linecap="round"/>
<path d="M21.7742 22.4965C21.6661 21.2305 23.4018 19.0488 25.6161 18.3053C27.7232 17.5979 28.4102 17.6069 30.5058 17.6068" stroke="#F3BD6C" stroke-linecap="round"/>
<path d="M34.4587 1.02335L12.5586 3.17043C12.405 3.18549 12.2878 3.31465 12.2878 3.469V3.75179C12.2878 3.92655 12.4366 4.06431 12.6109 4.05091L34.7532 2.34765C34.9478 2.33268 35.0765 2.13882 35.0148 1.95367L34.7726 1.22705C34.7283 1.09423 34.5981 1.00969 34.4587 1.02335Z" fill="#CECECE"/>
<path d="M34.5037 3.08801L12.5437 4.49649C12.3897 4.50637 12.2683 4.63151 12.2631 4.78577L12.2535 5.06841C12.2477 5.24306 12.3917 5.38576 12.5663 5.37823L34.7535 4.42147C34.9485 4.41306 35.0836 4.22364 35.0282 4.03652L34.8106 3.30216C34.7708 3.16792 34.6435 3.07904 34.5037 3.08801Z" fill="#CECECE"/>
<path d="M21.4249 22.8458C21.0756 18.6546 19.1163 15.0155 14.46 13.4522C9.80357 11.8889 4.2867 13.7893 2.60979 17.6068" stroke="#F3BD6C" stroke-linecap="round"/>
<path d="M12.6819 3.63636L23.2273 2.75757V14.1818H12.6819V3.63636Z" fill="#F3D2AB"/>
<path d="M30.6837 17.4603C28.9005 13.4008 23.0338 11.3799 18.0821 13.0423C17.2554 13.3199 16.5087 13.6589 15.8365 14.052" stroke="#F3BD6C" stroke-linecap="round"/>
<path d="M31.9547 15.9394C31.9547 17.832 30.4075 19.6801 27.5981 21.0848C24.8186 22.4745 20.9438 23.3485 16.6365 23.3485C12.3293 23.3485 8.45447 22.4745 5.675 21.0848C2.86563 19.6801 1.31836 17.832 1.31836 15.9394C1.31836 14.0468 2.86563 12.1987 5.675 10.794C8.45447 9.4043 12.3293 8.5303 16.6365 8.5303C20.9438 8.5303 24.8186 9.4043 27.5981 10.794C30.4075 12.1987 31.9547 14.0468 31.9547 15.9394Z" stroke="#E8E8E8"/>
<path d="M30.6839 17.4603C28.6493 14.489 24.2213 13.4838 19.9399 14.9212C19.3268 15.127 18.7757 15.3793 18.2816 15.6704" stroke="#F3BD6C" stroke-linecap="round"/>
<path d="M11.0764 15.2628C10.5857 15.7111 10.2428 16.5676 10.0886 17.099C10.06 17.1975 9.98667 17.2772 9.88937 17.3097L9.18792 17.5435C8.97635 17.614 8.91296 17.8825 9.07065 18.0402L9.16681 18.1364L10.4388 17.7124C10.4694 17.7022 10.5014 17.697 10.5337 17.697H11.7735C11.7932 17.697 11.8129 17.6989 11.8323 17.7028L13.0606 17.9485C13.2642 17.9892 13.3756 17.72 13.2029 17.6049C13.0468 17.5008 13.1175 17.2095 13.2994 17.1637C13.6723 17.0697 14.0925 16.9171 14.4708 16.7616C14.6851 16.6735 14.6198 16.3788 14.388 16.3788C14.2173 16.3788 14.1119 16.1926 14.1997 16.0462L15.0457 14.6362C15.1657 14.4362 15.0325 14.259 14.8268 14.3688C14.5539 14.5145 14.2199 14.7275 13.9033 14.9425C13.6599 15.1078 13.3349 14.8594 13.4279 14.5804C13.4926 14.3861 13.3571 14.2391 13.1858 14.3513C12.7827 14.6153 12.1956 15.1394 11.7405 15.5724C11.5999 15.7063 11.3638 15.6074 11.3638 15.4132C11.3638 15.2512 11.1961 15.1536 11.0764 15.2628Z" fill="#349B32"/>
<rect x="13.1213" y="3.63635" width="0.878788" height="9.66667" fill="#F3BD6C"/>
<path d="M14.8789 3.63635H15.7577V14.1818L14.8789 13.7424V3.63635Z" fill="#F3BD6C"/>
<rect x="16.6365" y="3.63635" width="0.878788" height="9.66667" fill="#F3BD6C"/>
<path d="M18.394 3.63635H19.2728V12.4242L18.394 13.303V3.63635Z" fill="#F3BD6C"/>
<rect x="20.1516" y="3.63635" width="0.878788" height="8.78788" fill="#F3BD6C"/>
<rect x="21.9092" y="3.63635" width="0.878788" height="8.78788" fill="#F3BD6C"/>
<path d="M15.8996 16.6448C15.5146 16.9256 15.2405 17.4707 15.1072 17.8332C15.0716 17.9299 14.9943 18.0066 14.8951 18.0342L14.4409 18.1604C14.2545 18.2121 14.2029 18.4519 14.3515 18.5758L15.3667 18.2938C15.3928 18.2865 15.4198 18.2828 15.447 18.2828H16.4358C16.4523 18.2828 16.4688 18.2842 16.4851 18.2869L17.5041 18.4567C17.6425 18.4798 17.708 18.2923 17.5853 18.2242C17.4726 18.1615 17.5151 17.9567 17.6414 17.9307C17.9333 17.8705 18.263 17.7719 18.5628 17.6701C18.7198 17.6168 18.6801 17.404 18.5143 17.404C18.3907 17.404 18.319 17.2641 18.3912 17.1637L18.9305 16.4147C19.0734 16.2162 18.9446 16.0295 18.7246 16.1363C18.5167 16.2373 18.2821 16.3652 18.063 16.4907C17.888 16.5911 17.6773 16.4128 17.7522 16.2255C17.807 16.0884 17.71 15.9753 17.5801 16.0452C17.2471 16.2241 16.7493 16.5964 16.3758 16.894C16.269 16.9792 16.1091 16.9037 16.1091 16.767C16.1091 16.652 15.9926 16.5771 15.8996 16.6448Z" fill="#349B32"/>
<path d="M21.9913 14.37C22.5164 14.3424 23.2349 14.6017 23.6664 14.8C23.7579 14.8421 23.8642 14.8397 23.9516 14.7897L24.3591 14.5566C24.5367 14.455 24.7617 14.5572 24.8021 14.7578L24.8195 14.8443L23.9609 15.3355C23.9281 15.3543 23.899 15.3792 23.8754 15.4088L23.3265 16.0968C23.3119 16.1151 23.2995 16.135 23.2895 16.1562L22.918 16.9459C22.8413 17.109 22.5966 17.054 22.5971 16.8738C22.5975 16.7142 22.366 16.6156 22.2343 16.7058C21.9909 16.8723 21.6849 17.0334 21.4001 17.1668C21.2299 17.2465 21.0837 17.0511 21.2009 16.9042C21.2868 16.7965 21.2291 16.6361 21.0943 16.6078L19.7497 16.326C19.531 16.2802 19.4954 16.0862 19.7083 16.0183C19.8924 15.9595 20.1143 15.9024 20.3382 15.851C20.5853 15.7943 20.6234 15.4416 20.3899 15.3427C20.2351 15.2772 20.2226 15.1232 20.3863 15.0852C20.7443 15.0021 21.3384 14.9521 21.8299 14.9265C21.9896 14.9181 22.057 14.7143 21.932 14.6145C21.8281 14.5316 21.8585 14.377 21.9913 14.37Z" fill="#349B32"/>
</svg>
