<svg width="36" height="31" viewBox="0 0 36 31" fill="none" xmlns="http://www.w3.org/2000/svg">
<path d="M12.8333 28.2191C12.8333 25.6996 15.1465 23.3462 18 23.3462C20.8534 23.3462 23.1666 25.3886 23.1666 27.908C23.1666 29.8779 19.9518 30.5 18 30.5C15.8185 30.5 12.8333 30.189 12.8333 28.2191Z" fill="#CFCFCF"/>
<path d="M35.5 12.5C35.5 21.3366 27.665 28.5 18 28.5C8.33502 28.5 0.5 21.3366 0.5 12.5C4.77778 5.83333 11.3889 4.5 18 4.5C25.3889 4.5 29.2778 5.3889 35.5 12.5Z" fill="#E1E1E1"/>
<ellipse cx="18" cy="12.0256" rx="17.8846" ry="11.5256" fill="#D5D5D5"/>
<ellipse cx="18" cy="12.0256" rx="17.0897" ry="10.7308" fill="#EDEDED"/>
<path d="M34.2948 16C32.3077 19.5769 25.7429 23.1538 18.3974 23.1538C11.052 23.1538 6.0769 21.1667 2.10254 16.3974C3.29485 13.6154 6.0769 11.2308 8.85894 11.2308C9.25639 6.46155 14.7533 3.98254 17.6025 4.07691C21.7436 4.45337 26.3461 6.46155 27.5384 10.8333C30.7179 11.6282 34.2948 14.2192 34.2948 16Z" fill="#502C21"/>
<path d="M23.5641 22.359C23.1667 17.5898 20.9372 13.4487 15.6385 11.6698C10.3399 9.89085 4.06206 12.0534 2.15385 16.3974" stroke="#3F1203" stroke-linecap="round"/>
<path d="M34.1002 16.2307C32.071 11.6112 25.3951 9.31154 19.7605 11.2033C18.8198 11.5191 17.97 11.905 17.2051 12.3522" stroke="#3F1203" stroke-linecap="round"/>
<path d="M19.5718 22.7564C19.5718 19.1795 18.2322 15.2185 13.6508 13.6804C9.0694 12.1423 4.33112 13.218 2.15388 16.3974" stroke="#3F1203" stroke-linecap="round"/>
<path d="M34.1001 16.2307C31.7848 12.8496 26.7461 11.7057 21.8742 13.3414C21.1765 13.5756 20.5494 13.8627 19.9871 14.1939" stroke="#3F1203" stroke-linecap="round"/>
<path d="M16.5236 22.7564C16.959 19.9744 15.427 16.4578 11.5388 15.1524C7.83895 13.9102 4.33101 14.4103 2.15378 16.3974" stroke="#3F1203" stroke-linecap="round"/>
<path d="M34.1002 16.2307C31.7849 14.1175 28.0545 13.5858 24.1201 14.9067C23.1505 15.2322 22.3188 15.687 21.6194 16.2307" stroke="#3F1203" stroke-linecap="round"/>
<path d="M13.4755 21.9615C13.8089 19.8312 12.0984 16.9996 9.12095 16C6.28783 15.0488 4.33104 15.2051 2.58925 16.7949" stroke="#3F1203" stroke-linecap="round"/>
<path d="M33.6371 16.6534C31.7848 14.9628 29.704 14.7966 26.6912 15.8081C24.9939 16.3779 23.6838 17.5076 22.8881 18.7821" stroke="#3F1203" stroke-linecap="round"/>
<path d="M9.99186 21.1667C10.1961 19.8615 9.20327 17.4073 7.37917 16.7949C5.64347 16.2121 4.01093 16.3312 2.94383 17.3052" stroke="#3F1203" stroke-linecap="round"/>
<path d="M23.9614 21.9616C23.8384 20.521 25.8135 18.0383 28.3333 17.1923C30.731 16.3873 31.5128 16.3975 33.8974 16.3975" stroke="#3F1203" stroke-linecap="round"/>
<path d="M35.3846 12.0256C35.3846 14.9811 33.525 17.7255 30.3755 19.7552C27.2311 21.7816 22.8571 23.0513 18 23.0513C13.1429 23.0513 8.76887 21.7816 5.62449 19.7552C2.4749 17.7255 0.615356 14.9811 0.615356 12.0256C0.615356 9.07014 2.4749 6.3258 5.62449 4.29607C8.76887 2.26969 13.1429 1 18 1C22.8571 1 27.2311 2.26969 30.3755 4.29607C33.525 6.3258 35.3846 9.07014 35.3846 12.0256Z" stroke="#D5D5D5"/>
<path d="M14.5712 11.2308C15.0109 10.0816 16.3796 9.24359 18 9.24359C19.4268 9.24359 20.6586 9.89342 21.2327 10.8333" stroke="#3F1203"/>
<path d="M11.641 10.8333C12.428 8.53497 15.2753 6.85898 18.1755 6.85898C20.7294 6.85898 23.3314 8.55607 24.3589 10.4359" stroke="#3F1203" stroke-linecap="round"/>
<path d="M8.85889 11.3301C8.85889 8.10389 12.3597 4.47437 18.0523 4.47437C23.2511 4.47437 27.1409 8.10389 27.1409 10.7655" stroke="#3F1203" stroke-linecap="round"/>
<path d="M19.4871 15.2051C19.4871 15.3417 19.4145 15.5035 19.2215 15.6482C19.0284 15.7931 18.7386 15.8974 18.3974 15.8974C18.0561 15.8974 17.7664 15.7931 17.5732 15.6482C17.3803 15.5035 17.3076 15.3417 17.3076 15.2051C17.3076 15.0685 17.3803 14.9068 17.5732 14.762C17.7664 14.6172 18.0561 14.5128 18.3974 14.5128C18.7386 14.5128 19.0284 14.6172 19.2215 14.762C19.4145 14.9068 19.4871 15.0685 19.4871 15.2051Z" stroke="#1E7300"/>
<path d="M17.1026 12.8205C17.1026 12.9571 17.0299 13.1189 16.837 13.2636C16.6438 13.4084 16.3541 13.5128 16.0128 13.5128C15.6716 13.5128 15.3818 13.4084 15.1887 13.2636C14.9957 13.1189 14.9231 12.9571 14.9231 12.8205C14.9231 12.6839 14.9957 12.5222 15.1887 12.3774C15.3818 12.2326 15.6716 12.1282 16.0128 12.1282C16.3541 12.1282 16.6438 12.2326 16.837 12.3774C17.0299 12.5222 17.1026 12.6839 17.1026 12.8205Z" stroke="#1E7300"/>
<path d="M21.0769 12.0257C21.0769 12.1622 21.0043 12.324 20.8113 12.4687C20.6182 12.6136 20.3285 12.718 19.9872 12.718C19.6459 12.718 19.3562 12.6136 19.1631 12.4687C18.9701 12.324 18.8975 12.1622 18.8975 12.0257C18.8975 11.8891 18.9701 11.7273 19.1631 11.5826C19.3562 11.4377 19.6459 11.3333 19.9872 11.3333C20.3285 11.3333 20.6182 11.4377 20.8113 11.5826C21.0043 11.7273 21.0769 11.8891 21.0769 12.0257Z" stroke="#1E7300"/>
</svg>
