<svg width="18" height="18" viewBox="0 0 18 18" fill="none" xmlns="http://www.w3.org/2000/svg">
<path d="M10.5009 16.5009H3.00088C2.80203 16.5078 2.60389 16.4737 2.41878 16.4008C2.23366 16.3278 2.06553 16.2176 1.92484 16.0769C1.78415 15.9362 1.67391 15.7681 1.60097 15.583C1.52804 15.3979 1.49397 15.1997 1.50088 15.0009V7.50088C1.49397 7.30203 1.52804 7.10389 1.60097 6.91878C1.67391 6.73366 1.78415 6.56553 1.92484 6.42484C2.06553 6.28415 2.23366 6.17391 2.41878 6.10098C2.60389 6.02804 2.80203 5.99397 3.00088 6.00088H6.00088V3.00088C5.99397 2.80203 6.02804 2.60389 6.10098 2.41878C6.17391 2.23366 6.28415 2.06553 6.42484 1.92484C6.56553 1.78415 6.73366 1.67391 6.91878 1.60097C7.10389 1.52804 7.30203 1.49397 7.50088 1.50088H15.0009C15.1997 1.49397 15.3979 1.52804 15.583 1.60097C15.7681 1.67391 15.9362 1.78415 16.0769 1.92484C16.2176 2.06553 16.3278 2.23366 16.4008 2.41878C16.4737 2.60389 16.5078 2.80203 16.5009 3.00088V10.5009C16.5077 10.6997 16.4735 10.8978 16.4006 11.0828C16.3276 11.2679 16.2173 11.436 16.0767 11.5767C15.936 11.7173 15.7679 11.8276 15.5828 11.9005C15.3978 11.9735 15.1997 12.0077 15.0009 12.0009H12.0009V15.0009C12.0077 15.1997 11.9735 15.3978 11.9005 15.5828C11.8276 15.7679 11.7173 15.936 11.5767 16.0767C11.436 16.2173 11.2679 16.3276 11.0828 16.4006C10.8978 16.4735 10.6997 16.5077 10.5009 16.5009ZM3.00088 7.50088V15.0009H10.5009V12.0009H7.50088C7.30206 12.0077 7.10397 11.9735 6.9189 11.9005C6.73384 11.8276 6.56576 11.7173 6.42509 11.5767C6.28442 11.436 6.17418 11.2679 6.1012 11.0828C6.02823 10.8978 5.99408 10.6997 6.00088 10.5009V7.50088H3.00088ZM7.50088 3.00088V10.5009H15.0009V3.00088H7.50088Z" fill="#FFA928"/>
</svg>
