<svg width="22" height="24" viewBox="0 0 22 24" fill="none" xmlns="http://www.w3.org/2000/svg">
<path d="M14.95 22.7V17.6529C14.95 16.5365 14.5526 15.4507 13.8226 14.6378C13.0902 13.822 12.0771 13.3447 11 13.3447C9.92288 13.3447 8.90981 13.822 8.17735 14.6378C7.44744 15.4507 7.05 16.5365 7.05 17.6529V22.7H2.6C2.28473 22.7 1.96244 22.5613 1.71034 22.2805C1.45568 21.9969 1.3 21.5954 1.3 21.1612V8.45202C1.3 8.17095 1.36557 7.89855 1.48571 7.66221L0.772573 7.29968L1.48571 7.66221C1.60574 7.42612 1.77332 7.23908 1.96403 7.11164C1.96403 7.11163 1.96403 7.11163 1.96404 7.11163L10.364 1.49846L9.91955 0.833305L10.364 1.49846C10.5632 1.36536 10.7828 1.3 11 1.3C11.2172 1.3 11.4368 1.36536 11.636 1.49846L12.0805 0.833305L11.636 1.49846L20.036 7.11164C20.2267 7.23908 20.3943 7.42612 20.5143 7.66221C20.6344 7.89854 20.7 8.17094 20.7 8.45201V21.1612C20.7 21.5954 20.5443 21.9969 20.2897 22.2805C20.0376 22.5613 19.7153 22.7 19.4 22.7H14.95Z" stroke="#222222" stroke-width="1.6"/>
</svg>
