<svg width="22" height="22" viewBox="0 0 22 22" fill="none" xmlns="http://www.w3.org/2000/svg">
<path d="M10 12.375C9.32013 12.375 8.65552 12.1734 8.09023 11.7957C7.52494 11.418 7.08434 10.8811 6.82417 10.253C6.56399 9.62486 6.49592 8.93369 6.62855 8.26688C6.76119 7.60007 7.08858 6.98757 7.56932 6.50682C8.05007 6.02608 8.66257 5.69869 9.32938 5.56605C9.99619 5.43342 10.6874 5.50149 11.3155 5.76167C11.9436 6.02184 12.4805 6.46244 12.8582 7.02773C13.2359 7.59302 13.4375 8.25763 13.4375 8.9375C13.4364 9.84885 13.0739 10.7226 12.4295 11.367C11.7851 12.0114 10.9113 12.3739 10 12.375ZM10 6.875C9.59208 6.875 9.19331 6.99597 8.85414 7.2226C8.51496 7.44923 8.25061 7.77134 8.0945 8.14822C7.93839 8.52509 7.89755 8.93979 7.97713 9.33988C8.05671 9.73996 8.25315 10.1075 8.54159 10.3959C8.83004 10.6844 9.19754 10.8808 9.59763 10.9604C9.99771 11.04 10.4124 10.9991 10.7893 10.843C11.1662 10.6869 11.4883 10.4225 11.7149 10.0834C11.9415 9.74419 12.0625 9.34543 12.0625 8.9375C12.062 8.39066 11.8445 7.86637 11.4578 7.4797C11.0711 7.09302 10.5468 6.87555 10 6.875Z" fill="#B3B3B3"/>
<path d="M10 20.625L4.20026 13.7851C4.11967 13.6824 4.03992 13.579 3.96101 13.475C2.97031 12.17 2.43511 10.576 2.43751 8.9375C2.43751 6.9318 3.23427 5.00825 4.65251 3.59001C6.07076 2.17176 7.99431 1.375 10 1.375C12.0057 1.375 13.9293 2.17176 15.3475 3.59001C16.7657 5.00825 17.5625 6.9318 17.5625 8.9375C17.5649 10.5752 17.03 12.1685 16.0397 13.4729L16.039 13.475C16.039 13.475 15.8328 13.7459 15.8018 13.7823L10 20.625ZM5.05826 12.6466C5.05963 12.6466 5.21913 12.8583 5.25557 12.9037L10 18.4993L14.7506 12.8961C14.7809 12.8583 14.9418 12.6452 14.9424 12.6445C15.7517 11.5783 16.1891 10.2761 16.1875 8.9375C16.1875 7.29647 15.5356 5.72266 14.3752 4.56228C13.2148 3.4019 11.641 2.75 10 2.75C8.35898 2.75 6.78517 3.4019 5.62478 4.56228C4.4644 5.72266 3.81251 7.29647 3.81251 8.9375C3.81107 10.2769 4.24892 11.5798 5.05895 12.6466H5.05826Z" fill="#B3B3B3"/>
</svg>
