<svg width="20" height="20" viewBox="0 0 20 20" fill="none" xmlns="http://www.w3.org/2000/svg">
<path d="M8.58333 13.2C8.34022 13.2 8.10706 13.2843 7.93515 13.4343C7.76324 13.5843 7.66667 13.7878 7.66667 14C7.66667 14.2122 7.76324 14.4157 7.93515 14.5657C8.10706 14.7157 8.34022 14.8 8.58333 14.8H10.4167C10.6598 14.8 10.8929 14.7157 11.0648 14.5657C11.2368 14.4157 11.3333 14.2122 11.3333 14C11.3333 13.7878 11.2368 13.5843 11.0648 13.4343C10.8929 13.2843 10.6598 13.2 10.4167 13.2H8.58333ZM6.75 2C6.02065 2 5.32118 2.25286 4.80546 2.70294C4.28973 3.15303 4 3.76348 4 4.4V15.6C4 16.2365 4.28973 16.847 4.80546 17.2971C5.32118 17.7471 6.02065 18 6.75 18H12.25C12.9793 18 13.6788 17.7471 14.1945 17.2971C14.7103 16.847 15 16.2365 15 15.6V4.4C15 3.76348 14.7103 3.15303 14.1945 2.70294C13.6788 2.25286 12.9793 2 12.25 2H6.75ZM5.83333 4.8C5.83333 4.58783 5.92991 4.38434 6.10182 4.23431C6.27373 4.08429 6.50688 4 6.75 4H12.25C12.4931 4 12.7263 4.08429 12.8982 4.23431C13.0701 4.38434 13.1667 4.58783 13.1667 4.8V15.2C13.1667 15.4122 13.0701 15.6157 12.8982 15.7657C12.7263 15.9157 12.4931 16 12.25 16H6.75C6.50688 16 6.27373 15.9157 6.10182 15.7657C5.92991 15.6157 5.83333 15.4122 5.83333 15.2V4.8Z" fill="#B3B3B3"/>
</svg>
