<svg width="20" height="22" viewBox="0 0 20 22" fill="none" xmlns="http://www.w3.org/2000/svg">
<path d="M16.1576 14.1226C15.5823 14.1256 15.0151 14.2591 14.4977 14.5135C13.9803 14.7679 13.5259 15.1365 13.1681 15.5923L7.55047 12.0387C7.75521 11.3701 7.75521 10.6544 7.55047 9.9858L13.1681 6.43217C13.7383 7.14656 14.54 7.6337 15.4311 7.80728C16.3223 7.98087 17.2454 7.8297 18.0369 7.38055C18.8285 6.9314 19.4373 6.21327 19.7557 5.35336C20.0741 4.49346 20.0814 3.54729 19.7763 2.68246C19.4713 1.81762 18.8736 1.08995 18.089 0.628346C17.3045 0.166741 16.3839 0.000994548 15.4902 0.160469C14.5964 0.319944 13.7874 0.794346 13.2062 1.49964C12.6251 2.20493 12.3094 3.09559 12.3151 4.01383C12.3187 4.36156 12.3705 4.70706 12.4688 5.04027L6.85115 8.59389C6.3552 7.96216 5.67731 7.50218 4.91144 7.27773C4.14558 7.05327 3.32967 7.07545 2.57682 7.34119C1.82397 7.60694 1.17147 8.10308 0.709756 8.76085C0.248046 9.41862 0 10.2054 0 11.0122C0 11.819 0.248046 12.6058 0.709756 13.2636C1.17147 13.9214 1.82397 14.4175 2.57682 14.6833C3.32967 14.949 4.14558 14.9712 4.91144 14.7467C5.67731 14.5223 6.3552 14.0623 6.85115 13.4306L12.4688 16.9842C12.3705 17.3174 12.3187 17.6629 12.3151 18.0106C12.3151 18.7796 12.5405 19.5313 12.9627 20.1707C13.3849 20.8101 13.985 21.3084 14.6871 21.6027C15.3892 21.8969 16.1618 21.9739 16.9072 21.8239C17.6525 21.6739 18.3372 21.3036 18.8746 20.7599C19.4119 20.2161 19.7779 19.5233 19.9262 18.7691C20.0744 18.0149 19.9983 17.2332 19.7075 16.5228C19.4167 15.8123 18.9242 15.2051 18.2923 14.7779C17.6604 14.3507 16.9175 14.1226 16.1576 14.1226ZM16.1576 1.68104C16.6135 1.68104 17.0593 1.81785 17.4384 2.07418C17.8175 2.33052 18.113 2.69485 18.2875 3.12111C18.462 3.54737 18.5077 4.01642 18.4187 4.46894C18.3298 4.92146 18.1102 5.33712 17.7878 5.66337C17.4653 5.98962 17.0545 6.2118 16.6073 6.30181C16.1601 6.39182 15.6966 6.34562 15.2753 6.16906C14.854 5.9925 14.494 5.69349 14.2406 5.30987C13.9873 4.92624 13.8521 4.47522 13.8521 4.01383C13.8521 3.39514 14.095 2.80178 14.5273 2.3643C14.9597 1.92681 15.5461 1.68104 16.1576 1.68104ZM3.86172 13.345C3.40575 13.345 2.96001 13.2082 2.58088 12.9519C2.20174 12.6955 1.90625 12.3312 1.73175 11.905C1.55725 11.4787 1.5116 11.0096 1.60056 10.5571C1.68951 10.1046 1.90909 9.68894 2.23151 9.36269C2.55394 9.03644 2.96473 8.81427 3.41195 8.72425C3.85917 8.63424 4.32272 8.68044 4.74399 8.857C5.16526 9.03357 5.52532 9.33257 5.77865 9.7162C6.03198 10.0998 6.16719 10.5508 6.16719 11.0122C6.16719 11.6309 5.9243 12.2243 5.49194 12.6618C5.05958 13.0993 4.47317 13.345 3.86172 13.345ZM16.1576 20.3434C15.7016 20.3434 15.2558 20.2066 14.8767 19.9503C14.4976 19.6939 14.2021 19.3296 14.0276 18.9033C13.8531 18.4771 13.8074 18.008 13.8964 17.5555C13.9853 17.103 14.2049 16.6873 14.5273 16.3611C14.8498 16.0348 15.2606 15.8127 15.7078 15.7226C16.155 15.6326 16.6185 15.6788 17.0398 15.8554C17.4611 16.032 17.8211 16.331 18.0745 16.7146C18.3278 17.0982 18.463 17.5492 18.463 18.0106C18.463 18.6293 18.2201 19.2227 17.7878 19.6602C17.3554 20.0976 16.769 20.3434 16.1576 20.3434Z" fill="#222222"/>
</svg>
