<svg width="19" height="20" viewBox="0 0 19 20" fill="none" xmlns="http://www.w3.org/2000/svg">
<path d="M3.66667 18H15.3333C15.7753 18 16.1993 17.8314 16.5118 17.5314C16.8244 17.2313 17 16.8244 17 16.4001V9.20035C17.0006 9.09507 16.9796 8.9907 16.9381 8.89324C16.8967 8.79577 16.8356 8.70712 16.7583 8.63237L10.0917 2.23262C9.93552 2.08363 9.72431 2 9.50416 2C9.284 2 9.0728 2.08363 8.91666 2.23262L2.25 8.63237C2.17126 8.70646 2.10862 8.79481 2.0657 8.89231C2.02279 8.9898 2.00046 9.09451 2 9.20035V16.4001C2 16.8244 2.17559 17.2313 2.48815 17.5314C2.80072 17.8314 3.22464 18 3.66667 18ZM7.83333 16.4001V12.4002H11.1667V16.4001H7.83333ZM3.66667 9.52834L9.49999 3.92856L15.3333 9.52834V16.4001H12.8333V12.4002C12.8333 11.9759 12.6577 11.5689 12.3452 11.2689C12.0326 10.9688 11.6087 10.8003 11.1667 10.8003H7.83333C7.3913 10.8003 6.96738 10.9688 6.65482 11.2689C6.34226 11.5689 6.16666 11.9759 6.16666 12.4002V16.4001H3.66667V9.52834Z" fill="#B3B3B3"/>
</svg>
