<svg width="54" height="31" viewBox="0 0 54 31" fill="none" xmlns="http://www.w3.org/2000/svg">
<ellipse cx="27" cy="15.9839" rx="27" ry="14.5161" fill="#C7C7C7"/>
<ellipse cx="27" cy="15.0161" rx="27" ry="14.5161" fill="#F5EFEF"/>
<ellipse cx="27.5" cy="14.0484" rx="20.5" ry="10.6452" fill="#E8E1E1"/>
<ellipse cx="27.5" cy="14.0484" rx="18.5" ry="8.70968" fill="#EFEFEF"/>
<path d="M51.85 14.5323C51.85 18.0575 49.1679 21.284 44.7535 23.6379C40.3456 25.9884 34.2459 27.4468 27.5 27.4468C20.7541 27.4468 14.6544 25.9884 10.2465 23.6379C5.83212 21.284 3.15 18.0575 3.15 14.5323C3.15 11.007 5.83212 7.78054 10.2465 5.42661C14.6544 3.07612 20.7541 1.61774 27.5 1.61774C34.2459 1.61774 40.3456 3.07612 44.7535 5.42661C49.1679 7.78054 51.85 11.007 51.85 14.5323Z" stroke="#1D0070" stroke-opacity="0.31" stroke-width="0.3"/>
<path d="M10.411 14.0498L10.4109 10.9009C10.4109 10.4339 10.7344 10.0304 11.1902 9.92896L17.2715 8.576C20.1875 7.92725 23.1759 7.65331 26.1643 7.76082L26.6875 7.77964C31.6546 7.95834 36.521 9.26012 40.9208 11.5871C40.9734 11.615 41.0229 11.6484 41.0684 11.687L43.2418 13.5273C44.1638 14.308 44.1705 15.7255 43.2559 16.5077C40.6348 18.7495 37.4022 20.1578 33.9701 20.5532L25.5947 21.5181C20.9185 22.0568 16.2297 20.5474 12.7352 17.3783L10.9343 15.4002C10.5976 15.0304 10.411 14.5487 10.411 14.0498Z" fill="#510500" fill-opacity="0.42"/>
<path d="M9.17572 13.2728L9.17568 10.1239C9.17567 9.65689 9.4992 9.25334 9.95493 9.15195L10.4311 9.04601C17.0687 7.56929 23.871 6.94575 30.6733 7.19047L32.9999 7.27417L40.4916 7.27417C41.5995 7.27417 42.5 8.1742 42.5 9.28158L42.5 13.799C42.5 14.2693 42.3172 14.7206 41.9902 15.0576C39.4093 17.7172 35.9858 19.4016 32.2976 19.8265L24.3595 20.7411C19.6833 21.2798 14.9945 19.7704 11.4999 16.6013L9.69902 14.6232C9.36238 14.2534 9.17573 13.7717 9.17572 13.2728Z" fill="#96170F"/>
<path d="M9.99995 10.1773C9.19995 9.79025 9.66662 9.37089 9.99995 9.2096C15.4999 6.79024 33.5 7.2742 39 7.2742C43.4 7.2742 42.1667 8.72573 42 9.2096C42 15.4999 25 16.4677 19.5 16.4677C14 16.4677 10.9999 10.6612 9.99995 10.1773Z" fill="#680000"/>
<path d="M10.4319 10.0501C9.64967 9.68492 10.106 9.28933 10.4319 9.13719C15.8098 6.85495 33.4105 7.31148 38.7884 7.31148C43.0908 7.31148 41.8848 8.68074 41.7218 9.13719C41.7218 15.071 25.0991 15.9839 19.7211 15.9839C14.3432 15.9839 11.4097 10.5065 10.4319 10.0501Z" stroke="#BE6043"/>
<path d="M22.6329 14.4538C20.4239 13.8749 17.1992 11.2535 15.4515 9.63644C15.3681 9.55927 15.4584 9.43152 15.5607 9.48101L18.9749 11.133C18.9913 11.141 19.0096 11.1443 19.0278 11.1425L39.2162 9.23648C39.3103 9.22759 39.3311 9.28393 39.2399 9.30864C37.3416 9.8228 25.8936 11.3219 20.2257 12.0826C20.1387 12.0943 20.1127 12.2038 20.181 12.2589L22.7066 14.2957C22.7865 14.3601 22.7322 14.4798 22.6329 14.4538Z" fill="#BE6043"/>
</svg>
