<svg width="36" height="31" viewBox="0 0 36 31" fill="none" xmlns="http://www.w3.org/2000/svg">
<path d="M4.75609 23.8169L3.91266 23.291C2.09092 22.1552 0.983765 20.1601 0.983765 18.0132C0.983765 15.325 2.71086 12.941 5.26525 12.1032L19.6325 7.39142C22.3047 6.51502 25.2289 6.87888 27.6049 8.38346L29.7986 9.7726C31.1591 10.6341 31.9838 12.1324 31.9838 13.7427C31.9838 15.7056 30.7638 17.4616 28.9243 18.1466L11.7899 24.5265C9.46205 25.3933 6.86387 25.1312 4.75609 23.8169Z" fill="#EBEBEB"/>
<path d="M1.15956 13.9041L1.15958 13.2414C1.1596 12.0198 1.90367 10.9214 3.03813 10.4682L7.16084 8.82143C9.87305 7.73804 12.7173 7.02011 15.6188 6.6865C20.951 6.07341 26.3523 6.77238 31.3528 8.72262L33.5006 9.56029C34.2805 9.86446 34.794 10.6159 34.794 11.453C34.794 12.4642 34.0502 13.3215 33.0491 13.4642L24.7488 14.6472C22.8035 14.9244 20.9019 15.4501 19.0904 16.2114L15.3429 17.7862C12.7002 18.8968 9.74705 19.0243 7.0184 18.1456L6.3875 17.9425C4.48699 17.3304 2.78703 16.2166 1.46713 14.7185C1.26891 14.4935 1.15956 14.2039 1.15956 13.9041Z" fill="#F78D76"/>
<path d="M11.4838 13.0074C9.88376 11.4074 6.48376 9.84072 5.48376 9.50739L7.98376 8.50739C9.98376 8.50739 13.4838 15.0074 11.4838 13.0074Z" fill="#F97255"/>
<path d="M16.9838 11.5074C15.3838 9.90739 11.9838 7.84072 10.9838 7.50739L13.4838 7.00739C15.4838 7.00739 18.9838 13.5074 16.9838 11.5074Z" fill="#F97255"/>
<path d="M22.9838 10.5074C21.3838 8.90739 18.4838 6.84072 17.4838 6.50739H19.9838C21.9838 6.50739 24.9838 12.5074 22.9838 10.5074Z" fill="#F97255"/>
<path d="M30.4838 11.0074C28.8838 9.40739 25.9838 7.34072 24.9838 7.00739L27.4838 7.50739C29.4838 7.50739 32.4838 13.0074 30.4838 11.0074Z" fill="#F97255"/>
</svg>
