<svg width="40" height="31" viewBox="0 0 40 31" fill="none" xmlns="http://www.w3.org/2000/svg">
<ellipse cx="20.0001" cy="17.8143" rx="17.3571" ry="11.1857" fill="#393939"/>
<path d="M39.1715 15.8857C39.1715 16.6376 38.741 17.4235 37.8052 18.2043C36.8723 18.9828 35.4925 19.7063 33.7434 20.3236C30.2499 21.5566 25.3909 22.3286 20 22.3286C14.6092 22.3286 9.7502 21.5566 6.25665 20.3236C4.50762 19.7063 3.12776 18.9828 2.19484 18.2043C1.2591 17.4235 0.828613 16.6376 0.828613 15.8857C0.828613 15.1338 1.2591 14.348 2.19484 13.5672C3.12776 12.7887 4.50762 12.0652 6.25665 11.4479C9.7502 10.2149 14.6092 9.44287 20 9.44287C25.3909 9.44287 30.2499 10.2149 33.7434 11.4479C35.4925 12.0652 36.8723 12.7887 37.8052 13.5672C38.741 14.348 39.1715 15.1338 39.1715 15.8857Z" fill="#393939" stroke="#545454"/>
<path d="M20 18.9714C30.0122 18.9714 38.1286 16.6344 38.1286 12.8V9.18211C38.1286 8.62567 37.6744 8.17625 37.118 8.18217L2.86082 8.54661C2.31272 8.55244 1.87146 8.99841 1.87146 9.54655V12.8C1.87146 16.6344 9.9879 18.9714 20 18.9714Z" fill="#464545"/>
<ellipse cx="20" cy="8.55714" rx="18.1286" ry="6.55714" fill="#393939"/>
<ellipse cx="20.0001" cy="8.55713" rx="15.8143" ry="5.01429" fill="#565555"/>
<path d="M34.2715 10.6914C32.9741 11.9257 27.4043 13.5714 20.0001 13.5714C12.5959 13.5714 6.59357 11.9257 5.72864 10.6914C7.02604 9.45714 12.5959 7.39999 20.0001 7.39999C27.4043 7.39999 33.4066 9.04571 34.2715 10.6914Z" fill="#FF6939"/>
<path d="M20.3858 9.4057C20.1053 9.86856 18.901 10.4857 17.3001 10.4857C15.6992 10.4857 14.4014 9.86856 14.2144 9.4057C14.4949 8.94285 15.6992 8.17142 17.3001 8.17142C18.901 8.17142 20.1988 8.78856 20.3858 9.4057Z" fill="#5F5F5F"/>
<circle cx="17.6858" cy="9.32859" r="0.385714" fill="#525252"/>
<circle cx="16.9143" cy="9.32859" r="0.385714" fill="#D9D9D9"/>
<circle cx="16.9143" cy="9.32859" r="0.385714" fill="#525252"/>
<ellipse cx="15.7571" cy="9.32859" rx="0.771429" ry="0.385714" fill="#525252"/>
<circle cx="18.4571" cy="9.32859" r="0.385714" fill="#525252"/>
<circle cx="19.2286" cy="9.32859" r="0.385714" fill="#525252"/>
<path d="M27.3286 10.4857L24.5474 9.71429C24.0839 10.2286 24.0839 10.4857 25.0109 11.2572C26.4943 11.2572 27.1741 10.7429 27.3286 10.4857Z" fill="#4D4D4D"/>
<path d="M24.8564 11.2572C24.9784 11.0182 25.2761 10.0801 24.4905 9.82362C23.3925 9.46524 22.5386 10.0625 21.9286 10.5404L24.8564 11.2572Z" fill="#5B5B5B"/>
<rect x="16.7733" y="10.9519" width="2.08438" height="0.854826" transform="rotate(11.1332 16.7733 10.9519)" fill="#FD3B3B"/>
<rect x="18.6809" y="10.3849" width="1.64386" height="0.854826" transform="rotate(-25.459 18.6809 10.3849)" fill="#FD3B3B"/>
<rect x="19.5726" y="11.4153" width="2.26494" height="0.854826" transform="rotate(-18.5657 19.5726 11.4153)" fill="#2DAD00"/>
</svg>
